<mxfile host="Electron" agent="Mozilla/5.0 (Windows NT 10.0; Win64; x64) AppleWebKit/537.36 (KHTML, like Gecko) draw.io/25.0.2 Chrome/128.0.6613.186 Electron/32.2.5 Safari/537.36" version="25.0.2">
  <diagram name="Seite-1" id="lFlBnlUbP_WjGcJ2aGYv">
    <mxGraphModel dx="1050" dy="621" grid="1" gridSize="10" guides="1" tooltips="1" connect="1" arrows="1" fold="1" page="1" pageScale="1" pageWidth="1169" pageHeight="1654" math="0" shadow="0">
      <root>
        <mxCell id="0" />
        <mxCell id="1" parent="0" />
        <mxCell id="ATMlxazn21cTTNkU6nyJ-37" value="" style="edgeStyle=orthogonalEdgeStyle;rounded=0;orthogonalLoop=1;jettySize=auto;html=1;endArrow=blockThin;endFill=1;" edge="1" parent="1" source="ATMlxazn21cTTNkU6nyJ-1" target="ATMlxazn21cTTNkU6nyJ-36">
          <mxGeometry relative="1" as="geometry">
            <Array as="points">
              <mxPoint x="460" y="150" />
              <mxPoint x="460" y="150" />
            </Array>
          </mxGeometry>
        </mxCell>
        <mxCell id="ATMlxazn21cTTNkU6nyJ-1" value="" style="ellipse;whiteSpace=wrap;html=1;aspect=fixed;fillColor=#000000;" vertex="1" parent="1">
          <mxGeometry x="440" y="90" width="40" height="40" as="geometry" />
        </mxCell>
        <mxCell id="ATMlxazn21cTTNkU6nyJ-7" value="Akkorde schreiben" style="rounded=1;whiteSpace=wrap;html=1;fillColor=none;" vertex="1" parent="1">
          <mxGeometry x="560" y="330" width="120" height="60" as="geometry" />
        </mxCell>
        <mxCell id="ATMlxazn21cTTNkU6nyJ-9" value="Noten schreiben" style="rounded=1;whiteSpace=wrap;html=1;fillColor=none;" vertex="1" parent="1">
          <mxGeometry x="400" y="330" width="120" height="60" as="geometry" />
        </mxCell>
        <mxCell id="ATMlxazn21cTTNkU6nyJ-11" value="Tabs schreiben" style="rounded=1;whiteSpace=wrap;html=1;fillColor=none;" vertex="1" parent="1">
          <mxGeometry x="240" y="330" width="120" height="60" as="geometry" />
        </mxCell>
        <mxCell id="ATMlxazn21cTTNkU6nyJ-14" value="" style="rounded=0;whiteSpace=wrap;html=1;" vertex="1" parent="1">
          <mxGeometry x="280" y="290" width="360" height="10" as="geometry" />
        </mxCell>
        <mxCell id="ATMlxazn21cTTNkU6nyJ-17" value="" style="edgeStyle=orthogonalEdgeStyle;rounded=0;orthogonalLoop=1;jettySize=auto;html=1;endArrow=blockThin;endFill=1;" edge="1" parent="1">
          <mxGeometry relative="1" as="geometry">
            <mxPoint x="299.71000000000004" y="300" as="sourcePoint" />
            <mxPoint x="300" y="330" as="targetPoint" />
          </mxGeometry>
        </mxCell>
        <mxCell id="ATMlxazn21cTTNkU6nyJ-18" value="" style="edgeStyle=orthogonalEdgeStyle;rounded=0;orthogonalLoop=1;jettySize=auto;html=1;endArrow=blockThin;endFill=1;" edge="1" parent="1">
          <mxGeometry relative="1" as="geometry">
            <mxPoint x="459.85" y="300" as="sourcePoint" />
            <mxPoint x="460" y="330" as="targetPoint" />
          </mxGeometry>
        </mxCell>
        <mxCell id="ATMlxazn21cTTNkU6nyJ-20" value="" style="edgeStyle=orthogonalEdgeStyle;rounded=0;orthogonalLoop=1;jettySize=auto;html=1;endArrow=blockThin;endFill=1;" edge="1" parent="1">
          <mxGeometry relative="1" as="geometry">
            <mxPoint x="619.85" y="300" as="sourcePoint" />
            <mxPoint x="620.14" y="330" as="targetPoint" />
          </mxGeometry>
        </mxCell>
        <mxCell id="ATMlxazn21cTTNkU6nyJ-21" value="" style="rounded=0;whiteSpace=wrap;html=1;" vertex="1" parent="1">
          <mxGeometry x="280" y="420" width="360" height="10" as="geometry" />
        </mxCell>
        <mxCell id="ATMlxazn21cTTNkU6nyJ-22" value="" style="edgeStyle=orthogonalEdgeStyle;rounded=0;orthogonalLoop=1;jettySize=auto;html=1;endArrow=blockThin;endFill=1;" edge="1" parent="1">
          <mxGeometry relative="1" as="geometry">
            <mxPoint x="299.71000000000004" y="390" as="sourcePoint" />
            <mxPoint x="300" y="420" as="targetPoint" />
          </mxGeometry>
        </mxCell>
        <mxCell id="ATMlxazn21cTTNkU6nyJ-23" value="" style="edgeStyle=orthogonalEdgeStyle;rounded=0;orthogonalLoop=1;jettySize=auto;html=1;endArrow=blockThin;endFill=1;" edge="1" parent="1">
          <mxGeometry relative="1" as="geometry">
            <mxPoint x="459.71000000000004" y="390" as="sourcePoint" />
            <mxPoint x="459.86" y="420" as="targetPoint" />
          </mxGeometry>
        </mxCell>
        <mxCell id="ATMlxazn21cTTNkU6nyJ-24" value="" style="edgeStyle=orthogonalEdgeStyle;rounded=0;orthogonalLoop=1;jettySize=auto;html=1;endArrow=blockThin;endFill=1;" edge="1" parent="1">
          <mxGeometry relative="1" as="geometry">
            <mxPoint x="619.71" y="390" as="sourcePoint" />
            <mxPoint x="620" y="420" as="targetPoint" />
          </mxGeometry>
        </mxCell>
        <mxCell id="ATMlxazn21cTTNkU6nyJ-25" value="" style="edgeStyle=orthogonalEdgeStyle;rounded=0;orthogonalLoop=1;jettySize=auto;html=1;endArrow=blockThin;endFill=1;" edge="1" parent="1">
          <mxGeometry relative="1" as="geometry">
            <mxPoint x="459.71" y="430" as="sourcePoint" />
            <mxPoint x="460" y="460" as="targetPoint" />
          </mxGeometry>
        </mxCell>
        <mxCell id="ATMlxazn21cTTNkU6nyJ-26" value="Komposition speichern" style="rounded=1;whiteSpace=wrap;html=1;fillColor=none;" vertex="1" parent="1">
          <mxGeometry x="400" y="580" width="120" height="60" as="geometry" />
        </mxCell>
        <mxCell id="ATMlxazn21cTTNkU6nyJ-27" value="" style="edgeStyle=orthogonalEdgeStyle;rounded=0;orthogonalLoop=1;jettySize=auto;html=1;endArrow=blockThin;endFill=1;" edge="1" parent="1">
          <mxGeometry relative="1" as="geometry">
            <mxPoint x="459.84999999999997" y="640" as="sourcePoint" />
            <mxPoint x="460.14" y="670" as="targetPoint" />
          </mxGeometry>
        </mxCell>
        <mxCell id="ATMlxazn21cTTNkU6nyJ-28" value="Komposition abspielen" style="rounded=1;whiteSpace=wrap;html=1;fillColor=none;" vertex="1" parent="1">
          <mxGeometry x="400" y="670" width="120" height="60" as="geometry" />
        </mxCell>
        <mxCell id="ATMlxazn21cTTNkU6nyJ-29" value="" style="ellipse;whiteSpace=wrap;html=1;aspect=fixed;fillColor=#000000;" vertex="1" parent="1">
          <mxGeometry x="740" y="90" width="40" height="40" as="geometry" />
        </mxCell>
        <mxCell id="ATMlxazn21cTTNkU6nyJ-35" style="edgeStyle=orthogonalEdgeStyle;rounded=0;orthogonalLoop=1;jettySize=auto;html=1;exitX=0.5;exitY=1;exitDx=0;exitDy=0;entryX=1;entryY=0.5;entryDx=0;entryDy=0;endArrow=blockThin;endFill=1;" edge="1" parent="1" source="ATMlxazn21cTTNkU6nyJ-32" target="ATMlxazn21cTTNkU6nyJ-28">
          <mxGeometry relative="1" as="geometry" />
        </mxCell>
        <mxCell id="ATMlxazn21cTTNkU6nyJ-32" value="Komposition laden" style="rounded=1;whiteSpace=wrap;html=1;fillColor=none;" vertex="1" parent="1">
          <mxGeometry x="700" y="240" width="120" height="60" as="geometry" />
        </mxCell>
        <mxCell id="ATMlxazn21cTTNkU6nyJ-34" value="" style="edgeStyle=orthogonalEdgeStyle;rounded=0;orthogonalLoop=1;jettySize=auto;html=1;endArrow=blockThin;endFill=1;exitX=0.5;exitY=1;exitDx=0;exitDy=0;entryX=0.5;entryY=0;entryDx=0;entryDy=0;" edge="1" parent="1" source="ATMlxazn21cTTNkU6nyJ-29" target="ATMlxazn21cTTNkU6nyJ-32">
          <mxGeometry relative="1" as="geometry">
            <mxPoint x="470" y="140" as="sourcePoint" />
            <mxPoint x="470" y="210" as="targetPoint" />
          </mxGeometry>
        </mxCell>
        <mxCell id="ATMlxazn21cTTNkU6nyJ-38" style="edgeStyle=orthogonalEdgeStyle;rounded=0;orthogonalLoop=1;jettySize=auto;html=1;exitX=0.5;exitY=1;exitDx=0;exitDy=0;entryX=0.5;entryY=0;entryDx=0;entryDy=0;endArrow=blockThin;endFill=1;" edge="1" parent="1" source="ATMlxazn21cTTNkU6nyJ-36" target="ATMlxazn21cTTNkU6nyJ-14">
          <mxGeometry relative="1" as="geometry" />
        </mxCell>
        <mxCell id="ATMlxazn21cTTNkU6nyJ-39" value="Ja" style="edgeLabel;html=1;align=center;verticalAlign=middle;resizable=0;points=[];" vertex="1" connectable="0" parent="ATMlxazn21cTTNkU6nyJ-38">
          <mxGeometry x="-0.032" relative="1" as="geometry">
            <mxPoint as="offset" />
          </mxGeometry>
        </mxCell>
        <mxCell id="ATMlxazn21cTTNkU6nyJ-40" style="edgeStyle=orthogonalEdgeStyle;rounded=0;orthogonalLoop=1;jettySize=auto;html=1;exitX=1;exitY=0.5;exitDx=0;exitDy=0;entryX=0.75;entryY=0;entryDx=0;entryDy=0;endArrow=blockThin;endFill=1;" edge="1" parent="1" source="ATMlxazn21cTTNkU6nyJ-36" target="ATMlxazn21cTTNkU6nyJ-7">
          <mxGeometry relative="1" as="geometry" />
        </mxCell>
        <mxCell id="ATMlxazn21cTTNkU6nyJ-41" value="Nein" style="edgeLabel;html=1;align=center;verticalAlign=middle;resizable=0;points=[];" vertex="1" connectable="0" parent="ATMlxazn21cTTNkU6nyJ-40">
          <mxGeometry x="0.298" y="1" relative="1" as="geometry">
            <mxPoint as="offset" />
          </mxGeometry>
        </mxCell>
        <mxCell id="ATMlxazn21cTTNkU6nyJ-36" value="&lt;font style=&quot;font-size: 10px;&quot;&gt;Premium vorhanden&lt;/font&gt;" style="rhombus;whiteSpace=wrap;html=1;fillColor=none;" vertex="1" parent="1">
          <mxGeometry x="420" y="160" width="80" height="80" as="geometry" />
        </mxCell>
        <mxCell id="ATMlxazn21cTTNkU6nyJ-43" style="edgeStyle=orthogonalEdgeStyle;rounded=0;orthogonalLoop=1;jettySize=auto;html=1;exitX=0.5;exitY=1;exitDx=0;exitDy=0;entryX=0.5;entryY=0;entryDx=0;entryDy=0;endArrow=blockThin;endFill=1;" edge="1" parent="1" source="ATMlxazn21cTTNkU6nyJ-42" target="ATMlxazn21cTTNkU6nyJ-26">
          <mxGeometry relative="1" as="geometry" />
        </mxCell>
        <mxCell id="ATMlxazn21cTTNkU6nyJ-46" value="Nein" style="edgeLabel;html=1;align=center;verticalAlign=middle;resizable=0;points=[];" vertex="1" connectable="0" parent="ATMlxazn21cTTNkU6nyJ-43">
          <mxGeometry x="0.12" y="-1" relative="1" as="geometry">
            <mxPoint x="1" y="-2" as="offset" />
          </mxGeometry>
        </mxCell>
        <mxCell id="ATMlxazn21cTTNkU6nyJ-44" style="edgeStyle=orthogonalEdgeStyle;rounded=0;orthogonalLoop=1;jettySize=auto;html=1;exitX=0;exitY=0.5;exitDx=0;exitDy=0;entryX=0;entryY=0.5;entryDx=0;entryDy=0;endArrow=blockThin;endFill=1;" edge="1" parent="1" source="ATMlxazn21cTTNkU6nyJ-42" target="ATMlxazn21cTTNkU6nyJ-14">
          <mxGeometry relative="1" as="geometry">
            <Array as="points">
              <mxPoint x="210" y="500" />
              <mxPoint x="210" y="295" />
            </Array>
          </mxGeometry>
        </mxCell>
        <mxCell id="ATMlxazn21cTTNkU6nyJ-45" value="Ja" style="edgeLabel;html=1;align=center;verticalAlign=middle;resizable=0;points=[];" vertex="1" connectable="0" parent="ATMlxazn21cTTNkU6nyJ-44">
          <mxGeometry x="0.0844" y="-1" relative="1" as="geometry">
            <mxPoint as="offset" />
          </mxGeometry>
        </mxCell>
        <mxCell id="ATMlxazn21cTTNkU6nyJ-42" value="&lt;font style=&quot;font-size: 10px;&quot;&gt;Fehler vorhanden&lt;/font&gt;" style="rhombus;whiteSpace=wrap;html=1;fillColor=none;" vertex="1" parent="1">
          <mxGeometry x="420" y="460" width="80" height="80" as="geometry" />
        </mxCell>
      </root>
    </mxGraphModel>
  </diagram>
</mxfile>
